<svg 
 xmlns="http://www.w3.org/2000/svg"
 xmlns:xlink="http://www.w3.org/1999/xlink"
 width="334px" height="146px">
<path fill-rule="evenodd"  fill="rgb(176, 126, 211)"
 d="M333.615,128.801 C323.136,123.197 312.658,119.171 302.180,116.428 C295.212,104.138 288.244,92.488 281.276,81.725 C274.095,90.753 266.915,100.741 259.734,111.599 C249.552,111.772 239.369,112.779 229.187,114.346 C241.498,95.015 253.809,77.195 266.121,61.993 C254.342,46.511 242.564,33.518 230.785,21.452 C241.086,20.228 251.387,19.475 261.688,19.421 C268.436,27.078 275.185,35.445 281.934,44.727 C288.801,37.049 295.668,30.076 302.535,23.393 C312.421,25.493 322.308,28.512 332.194,32.651 C320.322,42.978 308.449,52.717 296.577,64.947 C308.923,83.690 321.269,105.753 333.615,128.801 ZM196.689,109.146 C194.042,113.047 190.913,116.514 187.276,119.509 C181.118,124.583 174.370,128.064 167.030,130.009 C158.977,132.143 151.873,132.493 145.718,131.102 C139.560,129.709 134.765,126.364 131.332,121.001 C127.897,115.633 126.182,108.149 126.182,98.338 C126.182,80.153 126.182,61.160 126.182,41.359 C135.417,39.717 144.652,37.839 153.887,35.888 C153.887,53.004 153.887,69.897 153.887,86.568 C153.887,94.667 155.575,100.048 158.949,102.785 C162.323,105.520 167.088,105.989 173.246,104.205 C177.508,102.971 181.296,100.935 184.612,98.089 C187.925,95.248 190.561,91.653 192.515,87.323 C194.469,82.996 195.445,78.017 195.445,72.425 C195.445,56.872 195.445,41.787 195.445,27.170 C204.621,25.380 213.797,23.759 222.973,22.468 C222.973,50.070 222.973,81.038 222.973,115.370 C214.212,116.905 205.450,118.814 196.689,120.925 C196.689,116.969 196.689,113.047 196.689,109.146 ZM80.364,2.693 C89.599,2.518 98.834,2.133 108.069,1.605 C108.069,55.080 108.069,102.036 108.069,142.475 C98.834,144.050 89.599,145.199 80.364,145.719 C80.364,106.108 80.364,58.432 80.364,2.693 ZM60.650,29.155 C58.755,28.377 56.743,27.932 54.612,27.813 C50.586,27.587 47.478,28.683 45.288,31.127 C43.096,33.572 42.003,37.596 42.003,43.191 C42.003,44.699 42.003,46.176 42.003,47.672 C50.172,48.846 58.342,49.437 66.511,49.554 C66.511,57.828 66.511,65.888 66.511,73.733 C58.638,73.598 50.764,72.925 42.891,71.613 C42.891,97.852 42.891,121.939 42.891,143.874 C33.596,142.311 24.302,139.832 15.008,136.232 C15.008,113.231 15.008,89.161 15.008,64.038 C10.094,62.153 5.181,59.975 0.267,57.438 C0.267,50.302 0.267,43.156 0.267,36.001 C5.181,38.111 10.094,39.922 15.008,41.490 C15.008,39.967 15.008,38.460 15.008,36.929 C15.008,25.212 18.204,16.646 24.598,10.135 C30.992,3.651 40.107,0.298 51.948,0.698 C55.855,0.827 59.701,1.438 63.492,2.535 C67.280,3.634 70.477,5.216 73.082,7.290 C70.655,15.834 68.228,24.178 65.801,32.281 C64.261,30.974 62.543,29.936 60.650,29.155 Z"/>
</svg>
